<svg width="64" height="64" viewBox="0 0 64 64" fill="none" xmlns="http://www.w3.org/2000/svg">
<path d="M48.9565 6H15.0435C13.5652 6 12 7.34193 12 8.76774V42.3161L29.2174 57.9999H48.9565C50.4348 57.9999 52 56.658 52 55.2322V8.76774C52 7.34193 50.4348 6 48.9565 6Z" fill="#FFA551"/>
<path d="M51.9993 46.258V8.76774C51.9993 7.34193 50.4341 6 48.9558 6H15.0427C13.5645 6 12.2601 7.17419 12.2601 8.51612" fill="#FF8B64"/>
<path d="M51.9995 46.258V8.76774C51.9995 7.34193 50.4343 6 48.956 6H27.6517" fill="#FF9330"/>
<path d="M26.7819 42.903V55.3997C26.7819 55.5675 26.9558 55.7352 26.9558 55.9029L29.0428 57.832C29.2167 57.832 29.3906 57.9997 29.5645 57.9997H43.2167L27.1297 42.903H26.7819Z" fill="#FF8B64"/>
<path d="M26.7819 42.8195V55.4001C26.7819 55.5678 26.9558 55.7356 26.9558 55.9033L29.0428 57.8323C29.2167 57.8323 29.3906 58.0001 29.5645 58.0001H36.5211L28.608 45.3356L26.7819 42.8195Z" fill="#FF9330"/>
<path d="M29.2174 57.9999H29.3913V44.8322C29.3913 43.4064 28.087 42.0645 26.6087 42.0645L12 42.2322L29.2174 57.9999Z" fill="white"/>
<path d="M12 42.2322L29.2174 57.9999H29.3913V44.5805" fill="#FFF3E8"/>
<path d="M13.7391 42.2322V8.76774C13.7391 7.34193 14.7826 6 16.1739 6H15.0435C13.5652 6 12 7.34193 12 8.76774V42.3161L13.7391 42.2322Z" fill="#FFDFC1"/>
<path d="M43.0429 22.9418L39.8255 19.8386C39.1299 19.1676 38.1734 18.7483 37.1299 18.7483C36.0864 18.7483 35.2168 19.1676 34.4342 19.8386L20.2603 33.4257C19.7386 33.9289 19.7386 34.6837 20.2603 35.1031C20.7821 35.6063 21.5647 35.6063 21.9995 35.1031L36.1734 21.4322C36.6082 21.0128 37.4777 21.0128 37.9125 21.4322L41.1299 24.5354C41.3908 24.787 41.4777 25.0386 41.4777 25.3741C41.4777 25.7096 41.3038 25.9612 41.1299 26.2128L36.3473 30.9934C36.3473 30.9934 36.2603 30.9934 36.2603 31.0773L28.1734 38.8773C28.0864 38.9612 27.9995 38.9612 27.9125 38.8773L26.0864 37.116C25.9995 37.0321 25.9995 36.9483 26.0864 36.8644L31.4777 31.6644C31.9995 31.1612 31.9995 30.4063 31.4777 29.987C30.956 29.4838 30.1734 29.4838 29.7386 29.987L24.3473 35.187C23.3038 36.1934 23.3038 37.8708 24.3473 38.8773L26.1734 40.6386C26.6951 41.1418 27.3908 41.3934 28.0864 41.3934C28.7821 41.3934 29.4777 41.1418 29.9995 40.6386L33.5647 37.1999C33.5647 37.1999 33.6516 37.1999 33.6516 37.116L43.0429 28.058C43.7386 27.387 44.1734 26.4644 44.1734 25.458C44.0864 24.5354 43.7386 23.6128 43.0429 22.9418Z" fill="#99581D"/>
<path d="M43.0429 20.5934L39.8255 17.4902C39.1299 16.8193 38.1734 16.3999 37.1299 16.3999C36.0864 16.3999 35.2168 16.8193 34.4342 17.4902L20.2603 31.1612C19.7386 31.6644 19.7386 32.4192 20.2603 32.8386C20.7821 33.2579 21.5647 33.3418 21.9995 32.8386L36.1734 19.1676C36.6082 18.7483 37.4777 18.7483 37.9125 19.1676L41.1299 22.2709C41.3908 22.5225 41.4777 22.7741 41.4777 23.1096C41.4777 23.4451 41.3038 23.6967 41.1299 23.9483L36.3473 28.7289C36.3473 28.7289 36.2603 28.7289 36.2603 28.8128L28.1734 36.6128C28.0864 36.6966 27.9995 36.6966 27.9125 36.6128L26.0864 34.8515C25.9995 34.7676 25.9995 34.6837 26.0864 34.5999L31.4777 29.3999C31.9995 28.8967 31.9995 28.1418 31.4777 27.7225C30.956 27.2192 30.1734 27.2192 29.7386 27.7225L24.3473 32.8386C23.3038 33.845 23.3038 35.5225 24.3473 36.5289L26.1734 38.2902C26.6951 38.7934 27.3908 39.045 28.0864 39.045C28.7821 39.045 29.4777 38.7934 29.9995 38.2902L33.5647 34.8515C33.5647 34.8515 33.6516 34.8515 33.6516 34.7676L43.0429 25.7096C43.7386 25.0386 44.1734 24.116 44.1734 23.1096C44.0864 22.187 43.7386 21.2644 43.0429 20.5934Z" fill="white"/>
</svg>
